<svg xmlns="http://www.w3.org/2000/svg" viewBox="0 0 24 24" fill="none" stroke="currentColor" stroke-width="2" stroke-linecap="round" stroke-linejoin="round">
  <style>
    circle {
      stroke: #24292e;
      fill: #24292e;
    }
    path.github-icon {
      fill: white;
      stroke: white;
      stroke-width: 0.2;
    }
    path.chart-icon {
      stroke: #3b82f6;
      fill: #3b82f6;
    }
    @media (prefers-color-scheme: dark) {
      circle {
        stroke: #c9d1d9;
        fill: #c9d1d9;
      }
      path.github-icon {
        fill: #0d1117;
        stroke: #0d1117;
      }
      path.chart-icon {
        stroke: #60a5fa;
        fill: #60a5fa;
      }
    }
  </style>
  
  <!-- Background circle -->
  <circle cx="12" cy="12" r="10" />
  
  <!-- GitHub logo -->
  <path class="github-icon" d="M12 2.247a10 10 0 00-3.162 19.487c.5.088.687-.212.687-.475 0-.237-.012-1.025-.012-1.862-2.513.462-3.163-.613-3.363-1.175a3.636 3.636 0 00-1.025-1.413c-.35-.187-.85-.65-.012-.662.788-.013 1.35.725 1.538.963.9 1.512 2.337 1.087 2.912.825.088-.65.35-1.087.638-1.337-2.225-.25-4.55-1.112-4.55-4.938 0-1.088.387-1.987 1.025-2.687-.1-.25-.45-1.275.1-2.65 0 0 .837-.262 2.75 1.025a9.28 9.28 0 012.5-.337c.85 0 1.7.112 2.5.337 1.912-1.3 2.75-1.025 2.75-1.025.55 1.375.2 2.4.1 2.65.637.7 1.025 1.587 1.025 2.687 0 3.838-2.337 4.688-4.562 4.938.362.312.675.912.675 1.85 0 1.337-.013 2.412-.013 2.75 0 .262.188.575.688.475A10.017 10.017 0 0022 12.247c0-5.525-4.475-10-10-10z" />
  
  <!-- Chart icon -->
  <path class="chart-icon" d="M18 16V9" stroke-width="2.5" />
  <path class="chart-icon" d="M12 16v-3" stroke-width="2.5" />
  <path class="chart-icon" d="M6 16v-2" stroke-width="2.5" />
</svg>
